<svg id="visual" viewBox="0 0 900 100" width="900" height="100" xmlns="http://www.w3.org/2000/svg" xmlns:xlink="http://www.w3.org/1999/xlink" version="1.1"><rect x="0" y="0" width="900" height="100" fill="#ADBC9F"></rect><path d="M0 67L10 68.2C20 69.3 40 71.7 60 71.7C80 71.7 100 69.3 120 69.8C140 70.3 160 73.7 180 73.8C200 74 220 71 240 70.2C260 69.3 280 70.7 300 68.2C320 65.7 340 59.3 360 55.8C380 52.3 400 51.7 420 52.3C440 53 460 55 480 59.5C500 64 520 71 540 70.8C560 70.7 580 63.3 600 61.3C620 59.3 640 62.7 660 66.3C680 70 700 74 720 71.3C740 68.7 760 59.3 780 55C800 50.7 820 51.3 840 55.3C860 59.3 880 66.7 890 70.3L900 74L900 0L890 0C880 0 860 0 840 0C820 0 800 0 780 0C760 0 740 0 720 0C700 0 680 0 660 0C640 0 620 0 600 0C580 0 560 0 540 0C520 0 500 0 480 0C460 0 440 0 420 0C400 0 380 0 360 0C340 0 320 0 300 0C280 0 260 0 240 0C220 0 200 0 180 0C160 0 140 0 120 0C100 0 80 0 60 0C40 0 20 0 10 0L0 0Z" fill="#12372a"></path><path d="M0 60L10 59.8C20 59.7 40 59.3 60 57.5C80 55.7 100 52.3 120 50C140 47.7 160 46.3 180 48.2C200 50 220 55 240 55.3C260 55.7 280 51.3 300 49.8C320 48.3 340 49.7 360 51.2C380 52.7 400 54.3 420 55.2C440 56 460 56 480 57.5C500 59 520 62 540 62C560 62 580 59 600 59.3C620 59.7 640 63.3 660 61C680 58.7 700 50.3 720 49.5C740 48.7 760 55.3 780 55.5C800 55.7 820 49.3 840 46.8C860 44.3 880 45.7 890 46.3L900 47L900 0L890 0C880 0 860 0 840 0C820 0 800 0 780 0C760 0 740 0 720 0C700 0 680 0 660 0C640 0 620 0 600 0C580 0 560 0 540 0C520 0 500 0 480 0C460 0 440 0 420 0C400 0 380 0 360 0C340 0 320 0 300 0C280 0 260 0 240 0C220 0 200 0 180 0C160 0 140 0 120 0C100 0 80 0 60 0C40 0 20 0 10 0L0 0Z" fill="#47634f"></path><path d="M0 33L10 33.2C20 33.3 40 33.7 60 34.7C80 35.7 100 37.3 120 38.8C140 40.3 160 41.7 180 43.3C200 45 220 47 240 48.2C260 49.3 280 49.7 300 47.3C320 45 340 40 360 38.8C380 37.7 400 40.3 420 41C440 41.7 460 40.3 480 39.7C500 39 520 39 540 38.8C560 38.7 580 38.3 600 39.8C620 41.3 640 44.7 660 43.2C680 41.7 700 35.3 720 33.3C740 31.3 760 33.7 780 33.8C800 34 820 32 840 31.8C860 31.7 880 33.3 890 34.2L900 35L900 0L890 0C880 0 860 0 840 0C820 0 800 0 780 0C760 0 740 0 720 0C700 0 680 0 660 0C640 0 620 0 600 0C580 0 560 0 540 0C520 0 500 0 480 0C460 0 440 0 420 0C400 0 380 0 360 0C340 0 320 0 300 0C280 0 260 0 240 0C220 0 200 0 180 0C160 0 140 0 120 0C100 0 80 0 60 0C40 0 20 0 10 0L0 0Z" fill="#7f9379"></path><path d="M0 32L10 32.7C20 33.3 40 34.7 60 33.5C80 32.3 100 28.7 120 28.3C140 28 160 31 180 32.7C200 34.3 220 34.7 240 34.8C260 35 280 35 300 34.2C320 33.3 340 31.7 360 29.3C380 27 400 24 420 23C440 22 460 23 480 23.8C500 24.7 520 25.3 540 25.2C560 25 580 24 600 24.3C620 24.7 640 26.3 660 28.2C680 30 700 32 720 32.8C740 33.7 760 33.3 780 32.3C800 31.3 820 29.7 840 28.2C860 26.7 880 25.3 890 24.7L900 24L900 0L890 0C880 0 860 0 840 0C820 0 800 0 780 0C760 0 740 0 720 0C700 0 680 0 660 0C640 0 620 0 600 0C580 0 560 0 540 0C520 0 500 0 480 0C460 0 440 0 420 0C400 0 380 0 360 0C340 0 320 0 300 0C280 0 260 0 240 0C220 0 200 0 180 0C160 0 140 0 120 0C100 0 80 0 60 0C40 0 20 0 10 0L0 0Z" fill="#bbc5a7"></path><path d="M0 10L10 10.2C20 10.3 40 10.7 60 12.7C80 14.7 100 18.3 120 19C140 19.7 160 17.3 180 15.3C200 13.3 220 11.7 240 11.8C260 12 280 14 300 16.3C320 18.7 340 21.3 360 21.8C380 22.3 400 20.7 420 19.3C440 18 460 17 480 16.8C500 16.7 520 17.3 540 18.3C560 19.3 580 20.7 600 20.7C620 20.7 640 19.3 660 19.7C680 20 700 22 720 20.3C740 18.7 760 13.3 780 10.7C800 8 820 8 840 8.8C860 9.7 880 11.3 890 12.2L900 13L900 0L890 0C880 0 860 0 840 0C820 0 800 0 780 0C760 0 740 0 720 0C700 0 680 0 660 0C640 0 620 0 600 0C580 0 560 0 540 0C520 0 500 0 480 0C460 0 440 0 420 0C400 0 380 0 360 0C340 0 320 0 300 0C280 0 260 0 240 0C220 0 200 0 180 0C160 0 140 0 120 0C100 0 80 0 60 0C40 0 20 0 10 0L0 0Z" fill="#fbfada"></path></svg>