<svg id="visual" viewBox="0 0 900 100" width="900" height="100" xmlns="http://www.w3.org/2000/svg" xmlns:xlink="http://www.w3.org/1999/xlink" version="1.1"><rect x="0" y="0" width="900" height="100" fill="#FBFADA"></rect><path d="M0 57L11.5 57.8C23 58.7 46 60.3 69 63.3C92 66.3 115 70.7 138.2 68.8C161.3 67 184.7 59 207.8 58.7C231 58.3 254 65.7 277 70C300 74.3 323 75.7 346 73C369 70.3 392 63.7 415.2 62.3C438.3 61 461.7 65 484.8 64.2C508 63.3 531 57.7 554 59C577 60.3 600 68.7 623 70.5C646 72.3 669 67.7 692.2 65.2C715.3 62.7 738.7 62.3 761.8 62.7C785 63 808 64 831 66C854 68 877 71 888.5 72.5L900 74L900 0L888.5 0C877 0 854 0 831 0C808 0 785 0 761.8 0C738.7 0 715.3 0 692.2 0C669 0 646 0 623 0C600 0 577 0 554 0C531 0 508 0 484.8 0C461.7 0 438.3 0 415.2 0C392 0 369 0 346 0C323 0 300 0 277 0C254 0 231 0 207.8 0C184.7 0 161.3 0 138.2 0C115 0 92 0 69 0C46 0 23 0 11.5 0L0 0Z" fill="#12372a"></path><path d="M0 39L11.5 41.2C23 43.3 46 47.7 69 52.3C92 57 115 62 138.2 63.5C161.3 65 184.7 63 207.8 59.7C231 56.3 254 51.7 277 52.3C300 53 323 59 346 59C369 59 392 53 415.2 50.8C438.3 48.7 461.7 50.3 484.8 51.3C508 52.3 531 52.7 554 51.2C577 49.7 600 46.3 623 46.3C646 46.3 669 49.7 692.2 49.2C715.3 48.7 738.7 44.3 761.8 46.8C785 49.3 808 58.7 831 62.2C854 65.7 877 63.3 888.5 62.2L900 61L900 0L888.5 0C877 0 854 0 831 0C808 0 785 0 761.8 0C738.7 0 715.3 0 692.2 0C669 0 646 0 623 0C600 0 577 0 554 0C531 0 508 0 484.8 0C461.7 0 438.3 0 415.2 0C392 0 369 0 346 0C323 0 300 0 277 0C254 0 231 0 207.8 0C184.7 0 161.3 0 138.2 0C115 0 92 0 69 0C46 0 23 0 11.5 0L0 0Z" fill="#375644"></path><path d="M0 40L11.5 41C23 42 46 44 69 44.7C92 45.3 115 44.7 138.2 45.3C161.3 46 184.7 48 207.8 47.7C231 47.3 254 44.7 277 43.2C300 41.7 323 41.3 346 41.3C369 41.3 392 41.7 415.2 43.3C438.3 45 461.7 48 484.8 49.5C508 51 531 51 554 51.3C577 51.7 600 52.3 623 49.3C646 46.3 669 39.7 692.2 39.2C715.3 38.7 738.7 44.3 761.8 45.3C785 46.3 808 42.7 831 41.8C854 41 877 43 888.5 44L900 45L900 0L888.5 0C877 0 854 0 831 0C808 0 785 0 761.8 0C738.7 0 715.3 0 692.2 0C669 0 646 0 623 0C600 0 577 0 554 0C531 0 508 0 484.8 0C461.7 0 438.3 0 415.2 0C392 0 369 0 346 0C323 0 300 0 277 0C254 0 231 0 207.8 0C184.7 0 161.3 0 138.2 0C115 0 92 0 69 0C46 0 23 0 11.5 0L0 0Z" fill="#5c7760"></path><path d="M0 28L11.5 28.3C23 28.7 46 29.3 69 30.5C92 31.7 115 33.3 138.2 32.3C161.3 31.3 184.7 27.7 207.8 26.8C231 26 254 28 277 30.2C300 32.3 323 34.7 346 34.5C369 34.3 392 31.7 415.2 29.8C438.3 28 461.7 27 484.8 26C508 25 531 24 554 24.3C577 24.7 600 26.3 623 27.2C646 28 669 28 692.2 26.5C715.3 25 738.7 22 761.8 22.7C785 23.3 808 27.7 831 27.7C854 27.7 877 23.3 888.5 21.2L900 19L900 0L888.5 0C877 0 854 0 831 0C808 0 785 0 761.8 0C738.7 0 715.3 0 692.2 0C669 0 646 0 623 0C600 0 577 0 554 0C531 0 508 0 484.8 0C461.7 0 438.3 0 415.2 0C392 0 369 0 346 0C323 0 300 0 277 0C254 0 231 0 207.8 0C184.7 0 161.3 0 138.2 0C115 0 92 0 69 0C46 0 23 0 11.5 0L0 0Z" fill="#84997e"></path><path d="M0 24L11.5 23.3C23 22.7 46 21.3 69 20.8C92 20.3 115 20.7 138.2 20.8C161.3 21 184.7 21 207.8 20.2C231 19.3 254 17.7 277 16.8C300 16 323 16 346 16.7C369 17.3 392 18.7 415.2 18.7C438.3 18.7 461.7 17.3 484.8 17.7C508 18 531 20 554 19.8C577 19.7 600 17.3 623 16.8C646 16.3 669 17.7 692.2 16.8C715.3 16 738.7 13 761.8 12C785 11 808 12 831 11.7C854 11.3 877 9.7 888.5 8.8L900 8L900 0L888.5 0C877 0 854 0 831 0C808 0 785 0 761.8 0C738.7 0 715.3 0 692.2 0C669 0 646 0 623 0C600 0 577 0 554 0C531 0 508 0 484.8 0C461.7 0 438.3 0 415.2 0C392 0 369 0 346 0C323 0 300 0 277 0C254 0 231 0 207.8 0C184.7 0 161.3 0 138.2 0C115 0 92 0 69 0C46 0 23 0 11.5 0L0 0Z" fill="#adbc9f"></path></svg>